<?xml version="1.0" encoding="UTF-8"?>
<svg id="Layer_2" data-name="Layer 2" xmlns="http://www.w3.org/2000/svg" viewBox="0 0 479.05 457.69">
  <defs>
    <style>
      .cls-1 {
        fill: #606060;
      }
    </style>
  </defs>
  <g id="Layer_1-2" data-name="Layer 1">
    <path class="cls-1" d="M239.53,25.2l55.99,113.44c6.45,13.06,18.9,22.11,33.32,24.21l125.19,18.19-90.59,88.3c-10.43,10.17-15.19,24.81-12.73,39.17l21.38,124.68-111.97-58.87c-6.33-3.33-13.45-5.08-20.59-5.08s-14.27,1.76-20.59,5.08l-111.97,58.87,21.38-124.68c2.46-14.36-2.3-29-12.73-39.17L25.03,181.04l125.19-18.19c14.42-2.09,26.87-11.14,33.32-24.21L239.53,25.2m0-25.2c-7.58,0-15.16,3.95-19.06,11.85l-57.55,116.62c-3.1,6.27-9.08,10.62-16,11.63L18.22,158.79c-17.43,2.53-24.39,23.95-11.78,36.25l93.12,90.77c5.01,4.88,7.29,11.92,6.11,18.81l-21.98,128.18c-2.36,13.74,8.56,24.89,20.94,24.89,3.27,0,6.64-.78,9.89-2.49l115.11-60.52c3.1-1.63,6.49-2.44,9.89-2.44s6.79,.81,9.89,2.44l115.11,60.52c3.26,1.71,6.63,2.49,9.89,2.49,12.38,0,23.3-11.16,20.94-24.89l-21.98-128.18c-1.18-6.89,1.1-13.93,6.11-18.81l93.12-90.77c12.61-12.29,5.65-33.71-11.78-36.25l-128.7-18.7c-6.92-1.01-12.91-5.35-16-11.63L258.58,11.85c-3.9-7.9-11.48-11.85-19.06-11.85h0Z"/>
  </g>
</svg>