<?xml version="1.0" encoding="UTF-8"?>
<svg id="Layer_2" data-name="Layer 2" xmlns="http://www.w3.org/2000/svg" viewBox="0 0 479.05 457.69">
  <defs>
    <style>
      .cls-1 {
        fill: #ffdd36;
      }
    </style>
  </defs>
  <g id="Layer_1-2" data-name="Layer 1">
    <path class="cls-1" d="M258.58,11.85l57.55,116.62c3.1,6.27,9.08,10.62,16,11.63l128.7,18.7c17.43,2.53,24.39,23.95,11.78,36.25l-93.12,90.77c-5.01,4.88-7.29,11.92-6.11,18.81l21.98,128.18c2.98,17.36-15.24,30.6-30.83,22.4l-115.11-60.52c-6.19-3.25-13.59-3.25-19.78,0l-115.11,60.52c-15.59,8.2-33.81-5.04-30.83-22.4l21.98-128.18c1.18-6.89-1.1-13.93-6.11-18.81L6.44,195.04c-12.61-12.29-5.65-33.71,11.78-36.25l128.7-18.7c6.92-1.01,12.91-5.35,16-11.63L220.47,11.85c7.8-15.79,30.32-15.79,38.11,0Z"/>
  </g>
</svg>